# xmcd CD database file
#
# Track frame offsets:
#	150
#	21355
#	37225
#	54192
#	71580
#	87012
#	102097
#	119727
#	134420
#	145827
#	166735
#	182592
#	202710
#	228842
#	242622
#	266297
#	285725
#	309110
#
# Disc length: 4399 seconds
#
# Revision: 1
# Processed by: cddbd v1.5PL3 Copyright (c) Steve Scherf et al.
# Submitted via: CDex 1.50beta9
#
DISCID=ec112d12
DTITLE=Gladys Knight - The Greatest Hits
DYEAR=1998
DGENRE=Soul
TTITLE0=Midnight Train To Georgia
TTITLE1=I've Got To Use My Imagination
TTITLE2=Best Thing That Ever Happened To Me
TTITLE3=So Sad The Song
TTITLE4=Come Back And Finish What You've Started
TTITLE5=I Feel A Song (In My Heart)
TTITLE6=Love Finds It's Own Way
TTITLE7=Baby Donｴt Change Your Mind
TTITLE8=Part Time Love
TTITLE9=Make Yours A Happy Home
TTITLE10=Nobody But You
TTITLE11=Where Peaceful Waters Flow
TTITLE12=Itｴs A Better Than Good Time
TTITLE13=The One and Only
TTITLE14=Home Is Where The Heart Is
TTITLE15=On and On
TTITLE16=Money
TTITLE17=Try To Remember - The Way We Were
EXTD=YEAR: 1998
EXTT0=
EXTT1=
EXTT2=
EXTT3=
EXTT4=
EXTT5=
EXTT6=
EXTT7=
EXTT8=
EXTT9=
EXTT10=
EXTT11=
EXTT12=
EXTT13=
EXTT14=
EXTT15=
EXTT16=
EXTT17=
PLAYORDER=
